<?xml version="1.0" encoding="UTF-8"?>
<!--Generator: Apple Native CoreSVG 341-->
<!DOCTYPE svg
PUBLIC "-//W3C//DTD SVG 1.1//EN"
       "http://www.w3.org/Graphics/SVG/1.1/DTD/svg11.dtd">
<svg version="1.1" xmlns="http://www.w3.org/2000/svg" xmlns:xlink="http://www.w3.org/1999/xlink" viewBox="0 0 3300 2200">
 <!--glyph: "", point size: 100.0, font version: "21.0d4e1", template writer version: "138.0.0"-->
 <style>.defaults {-sfsymbols-variable-value-mode:color;-sfsymbols-draw-reverses-motion-groups:true}

.monochrome-0 {-sfsymbols-motion-group:0;-sfsymbols-layer-tags:8915c32934a8be0}

.multicolor-0:tintColor {-sfsymbols-motion-group:0;-sfsymbols-layer-tags:8915c32934a8be0}

.hierarchical-0:primary {-sfsymbols-motion-group:0;-sfsymbols-layer-tags:8915c32934a8be0}

.SFSymbolsPreviewWireframe {fill:none;opacity:1.0;stroke:black;stroke-width:0.5}
</style>
 <g id="Notes">
  <rect height="2200" id="artboard" style="fill:white;opacity:1" width="3300" x="0" y="0"/>
  <line style="fill:none;stroke:black;opacity:1;stroke-width:0.5;" x1="263" x2="3036" y1="292" y2="292"/>
  <text style="stroke:none;fill:black;font-family:sans-serif;font-size:13;font-weight:bold;" transform="matrix(1 0 0 1 263 322)">Weight/Scale Variations</text>
  <text style="stroke:none;fill:black;font-family:sans-serif;font-size:13;text-anchor:middle;" transform="matrix(1 0 0 1 559.711 322)">Ultralight</text>
  <text style="stroke:none;fill:black;font-family:sans-serif;font-size:13;text-anchor:middle;" transform="matrix(1 0 0 1 856.422 322)">Thin</text>
  <text style="stroke:none;fill:black;font-family:sans-serif;font-size:13;text-anchor:middle;" transform="matrix(1 0 0 1 1153.13 322)">Light</text>
  <text style="stroke:none;fill:black;font-family:sans-serif;font-size:13;text-anchor:middle;" transform="matrix(1 0 0 1 1449.84 322)">Regular</text>
  <text style="stroke:none;fill:black;font-family:sans-serif;font-size:13;text-anchor:middle;" transform="matrix(1 0 0 1 1746.56 322)">Medium</text>
  <text style="stroke:none;fill:black;font-family:sans-serif;font-size:13;text-anchor:middle;" transform="matrix(1 0 0 1 2043.27 322)">Semibold</text>
  <text style="stroke:none;fill:black;font-family:sans-serif;font-size:13;text-anchor:middle;" transform="matrix(1 0 0 1 2339.98 322)">Bold</text>
  <text style="stroke:none;fill:black;font-family:sans-serif;font-size:13;text-anchor:middle;" transform="matrix(1 0 0 1 2636.69 322)">Heavy</text>
  <text style="stroke:none;fill:black;font-family:sans-serif;font-size:13;text-anchor:middle;" transform="matrix(1 0 0 1 2933.4 322)">Black</text>
  <line style="fill:none;stroke:black;opacity:1;stroke-width:0.5;" x1="263" x2="3036" y1="1903" y2="1903"/>
  <g transform="matrix(0.2 0 0 0.2 263 1933)">
   <path d="m46.2402 4.15039c21.7773 0 39.4531-17.627 39.4531-39.4043s-17.6758-39.4043-39.4531-39.4043c-21.7285 0-39.4043 17.627-39.4043 39.4043s17.6758 39.4043 39.4043 39.4043Zm0-7.42188c-17.6758 0-31.9336-14.3066-31.9336-31.9824s14.2578-31.9824 31.9336-31.9824 31.9824 14.3066 31.9824 31.9824-14.3066 31.9824-31.9824 31.9824Zm3.61328-17.7734v-28.4668c0-2.24609-1.46484-3.75977-3.71094-3.75977-2.14844 0-3.61328 1.51367-3.61328 3.75977v28.4668c0 2.19727 1.46484 3.71094 3.61328 3.71094 2.24609 0 3.71094-1.51367 3.71094-3.71094Zm-17.8223-10.5957h28.418c2.19727 0 3.71094-1.46484 3.71094-3.61328 0-2.19727-1.51367-3.71094-3.71094-3.71094h-28.418c-2.24609 0-3.75977 1.51367-3.75977 3.71094 0 2.14844 1.51367 3.61328 3.75977 3.61328Z"/>
  </g>
  <g transform="matrix(0.2 0 0 0.2 281.506 1933)">
   <path d="m58.5449 14.5508c27.4902 0 49.8047-22.3145 49.8047-49.8047s-22.3145-49.8047-49.8047-49.8047-49.8047 22.3145-49.8047 49.8047 22.3145 49.8047 49.8047 49.8047Zm0-8.30078c-22.9492 0-41.5039-18.5547-41.5039-41.5039s18.5547-41.5039 41.5039-41.5039 41.5039 18.5547 41.5039 41.5039-18.5547 41.5039-41.5039 41.5039Zm4.05273-23.0957v-36.9141c0-2.49023-1.70898-4.19922-4.15039-4.19922-2.39258 0-4.05273 1.70898-4.05273 4.19922v36.9141c0 2.44141 1.66016 4.15039 4.05273 4.15039 2.44141 0 4.15039-1.66016 4.15039-4.15039Zm-22.5586-14.4043h36.9629c2.44141 0 4.15039-1.61133 4.15039-4.00391 0-2.44141-1.70898-4.15039-4.15039-4.15039h-36.9629c-2.49023 0-4.15039 1.70898-4.15039 4.15039 0 2.39258 1.66016 4.00391 4.15039 4.00391Z"/>
  </g>
  <g transform="matrix(0.2 0 0 0.2 304.924 1933)">
   <path d="m74.8535 28.3203c35.1074 0 63.623-28.4668 63.623-63.5742s-28.5156-63.623-63.623-63.623-63.5742 28.5156-63.5742 63.623 28.4668 63.5742 63.5742 63.5742Zm0-9.08203c-30.127 0-54.4922-24.3652-54.4922-54.4922s24.3652-54.4922 54.4922-54.4922 54.4922 24.3652 54.4922 54.4922-24.3652 54.4922-54.4922 54.4922Zm4.44336-30.3223v-48.4863c0-2.73438-1.85547-4.63867-4.54102-4.63867-2.58789 0-4.44336 1.9043-4.44336 4.63867v48.4863c0 2.68555 1.85547 4.58984 4.44336 4.58984 2.68555 0 4.54102-1.85547 4.54102-4.58984Zm-28.7109-19.7754h48.4863c2.68555 0 4.58984-1.80664 4.58984-4.39453 0-2.73438-1.85547-4.58984-4.58984-4.58984h-48.4863c-2.73438 0-4.58984 1.85547-4.58984 4.58984 0 2.58789 1.85547 4.39453 4.58984 4.39453Z"/>
  </g>
  <text style="stroke:none;fill:black;font-family:sans-serif;font-size:13;font-weight:bold;" transform="matrix(1 0 0 1 263 1953)">Design Variations</text>
  <text style="stroke:none;fill:black;font-family:sans-serif;font-size:13;" transform="matrix(1 0 0 1 263 1971)">Symbols are supported in up to nine weights and three scales.</text>
  <text style="stroke:none;fill:black;font-family:sans-serif;font-size:13;" transform="matrix(1 0 0 1 263 1989)">For optimal layout with text and other symbols, vertically align</text>
  <text style="stroke:none;fill:black;font-family:sans-serif;font-size:13;" transform="matrix(1 0 0 1 263 2007)">symbols with the adjacent text.</text>
  <line style="fill:none;stroke:#00AEEF;stroke-width:0.5;opacity:1.0;" x1="776" x2="776" y1="1919" y2="1933"/>
  <g transform="matrix(0.2 0 0 0.2 776 1933)">
   <path d="m16.5527 0.78125c2.58789 0 3.85742-0.976562 4.78516-3.71094l20.5566-57.5195h0.244141l20.6055 57.5195c0.927734 2.73438 2.19727 3.71094 4.73633 3.71094 2.58789 0 4.24805-1.5625 4.24805-4.00391 0-0.830078-0.146484-1.61133-0.537109-2.63672l-22.9004-60.9863c-1.12305-2.97852-3.125-4.49219-6.25-4.49219-3.02734 0-5.07812 1.46484-6.15234 4.44336l-22.9004 61.084c-0.390625 1.02539-0.537109 1.80664-0.537109 2.63672 0 2.44141 1.5625 3.95508 4.10156 3.95508Zm10.2051-20.9473h30.6641c2.00195 0 3.66211-1.66016 3.66211-3.66211 0-2.05078-1.66016-3.66211-3.66211-3.66211h-30.6641c-2.00195 0-3.66211 1.61133-3.66211 3.66211 0 2.00195 1.66016 3.66211 3.66211 3.66211Z"/>
  </g>
  <line style="fill:none;stroke:#00AEEF;stroke-width:0.5;opacity:1.0;" x1="792.836" x2="792.836" y1="1919" y2="1933"/>
  <text style="stroke:none;fill:black;font-family:sans-serif;font-size:13;font-weight:bold;" transform="matrix(1 0 0 1 776 1953)">Margins</text>
  <text style="stroke:none;fill:black;font-family:sans-serif;font-size:13;" transform="matrix(1 0 0 1 776 1971)">Leading and trailing margins on the left and right side of each symbol</text>
  <text style="stroke:none;fill:black;font-family:sans-serif;font-size:13;" transform="matrix(1 0 0 1 776 1989)">can be adjusted by modifying the x-location of the margin guidelines.</text>
  <text style="stroke:none;fill:black;font-family:sans-serif;font-size:13;" transform="matrix(1 0 0 1 776 2007)">Modifications are automatically applied proportionally to all</text>
  <text style="stroke:none;fill:black;font-family:sans-serif;font-size:13;" transform="matrix(1 0 0 1 776 2025)">scales and weights.</text>
  <g transform="matrix(0.2 0 0 0.2 1289 1933)">
   <path d="m14.209 13.1348 7.86133 7.86133c4.29688 4.39453 9.32617 4.10156 13.8672-1.02539l60.6934-68.2129-4.88281-4.88281-60.2539 67.6758c-1.80664 1.95312-3.4668 2.44141-5.81055 0.0976562l-5.17578-5.12695c-2.29492-2.29492-1.80664-3.95508 0.195312-5.81055l67.4805-62.1582-4.88281-4.83398-68.0664 62.5977c-4.98047 4.58984-5.32227 9.47266-1.02539 13.8184Zm44.873-97.4609c-2.05078 2.00195-2.24609 4.88281-1.07422 6.78711 1.12305 1.80664 3.4668 3.02734 6.5918 2.24609 5.85938-1.66016 12.5977-2.39258 18.8965 0.927734l-2.68555 7.12891c-1.61133 4.00391-0.732422 6.88477 1.70898 9.42383l10.2539 10.3027c2.34375 2.39258 4.54102 2.44141 7.08008 1.95312l4.44336-0.732422 2.58789 2.53906-0.195312 2.24609c-0.0976562 2.29492 0.537109 4.29688 2.7832 6.49414l3.36914 3.32031c2.29492 2.29492 5.51758 2.49023 7.8125 0.195312l12.9883-13.0371c2.29492-2.34375 2.14844-5.37109-0.195312-7.66602l-3.41797-3.41797c-2.19727-2.19727-4.05273-3.02734-6.34766-2.88086l-2.34375 0.244141-2.44141-2.44141 1.02539-4.6875c0.634766-2.73438-0.244141-4.98047-2.88086-7.61719l-11.2793-11.1816c-12.9395-12.8418-35.5957-11.0352-46.6797-0.146484Zm7.08008 2.05078c8.78906-6.39648 25.9766-5.66406 33.6914 1.95312l12.3047 12.207c1.02539 1.02539 1.2207 1.80664 0.927734 3.32031l-1.46484 6.64062 6.73828 6.68945 4.39453-0.244141c1.12305-0.0488281 1.51367 0.0488281 2.34375 0.878906l2.53906 2.49023-10.8398 10.8398-2.49023-2.49023c-0.830078-0.878906-0.976562-1.2207-0.927734-2.39258l0.292969-4.3457-6.68945-6.73828-6.83594 1.17188c-1.41602 0.292969-2.05078 0.195312-3.17383-0.878906l-8.93555-8.88672c-1.07422-1.02539-1.17188-1.70898-0.488281-3.36914l4.58984-11.4746c-6.10352-6.34766-17.041-7.51953-25.5859-4.58984-0.683594 0.244141-0.927734-0.390625-0.390625-0.78125Z"/>
  </g>
  <text style="stroke:none;fill:black;font-family:sans-serif;font-size:13;font-weight:bold;" transform="matrix(1 0 0 1 1289 1953)">Exporting</text>
  <text style="stroke:none;fill:black;font-family:sans-serif;font-size:13;" transform="matrix(1 0 0 1 1289 1971)">Symbols should be outlined when exporting to ensure the</text>
  <text style="stroke:none;fill:black;font-family:sans-serif;font-size:13;" transform="matrix(1 0 0 1 1289 1989)">design is preserved when submitting to Xcode.</text>
  <text id="template-version" style="stroke:none;fill:black;font-family:sans-serif;font-size:13;text-anchor:end;" transform="matrix(1 0 0 1 3036 1933)">Template v.6.0</text>
  <text style="stroke:none;fill:black;font-family:sans-serif;font-size:13;text-anchor:end;" transform="matrix(1 0 0 1 3036 1951)">Requires Xcode 16 or greater</text>
  <text id="descriptive-name" style="stroke:none;fill:black;font-family:sans-serif;font-size:13;text-anchor:end;" transform="matrix(1 0 0 1 3036 1969)">Generated from scan-beanbag</text>
  <text style="stroke:none;fill:black;font-family:sans-serif;font-size:13;text-anchor:end;" transform="matrix(1 0 0 1 3036 1987)">Typeset at 100.0 points</text>
  <text style="stroke:none;fill:black;font-family:sans-serif;font-size:13;" transform="matrix(1 0 0 1 263 726)">Small</text>
  <text style="stroke:none;fill:black;font-family:sans-serif;font-size:13;" transform="matrix(1 0 0 1 263 1156)">Medium</text>
  <text style="stroke:none;fill:black;font-family:sans-serif;font-size:13;" transform="matrix(1 0 0 1 263 1586)">Large</text>
 </g>
 <g id="Guides">
  <g id="H-reference" style="fill:#27AAE1;stroke:none;" transform="matrix(1 0 0 1 339 696)">
   <path d="M0.993654 0L3.63775 0L29.3281-67.1323L30.0303-67.1323L30.0303-70.459L28.1226-70.459ZM11.6885-24.4799L46.9815-24.4799L46.2315-26.7285L12.4385-26.7285ZM55.1196 0L57.7637 0L30.6382-70.459L29.4326-70.459L29.4326-67.1323Z"/>
  </g>
  <line id="Baseline-S" style="fill:none;stroke:#27AAE1;opacity:1;stroke-width:0.5;" x1="263" x2="3036" y1="696" y2="696"/>
  <line id="Capline-S" style="fill:none;stroke:#27AAE1;opacity:1;stroke-width:0.5;" x1="263" x2="3036" y1="625.541" y2="625.541"/>
  <g id="H-reference" style="fill:#27AAE1;stroke:none;" transform="matrix(1 0 0 1 339 1126)">
   <path d="M0.993654 0L3.63775 0L29.3281-67.1323L30.0303-67.1323L30.0303-70.459L28.1226-70.459ZM11.6885-24.4799L46.9815-24.4799L46.2315-26.7285L12.4385-26.7285ZM55.1196 0L57.7637 0L30.6382-70.459L29.4326-70.459L29.4326-67.1323Z"/>
  </g>
  <line id="Baseline-M" style="fill:none;stroke:#27AAE1;opacity:1;stroke-width:0.5;" x1="263" x2="3036" y1="1126" y2="1126"/>
  <line id="Capline-M" style="fill:none;stroke:#27AAE1;opacity:1;stroke-width:0.5;" x1="263" x2="3036" y1="1055.54" y2="1055.54"/>
  <g id="H-reference" style="fill:#27AAE1;stroke:none;" transform="matrix(1 0 0 1 339 1556)">
   <path d="M0.993654 0L3.63775 0L29.3281-67.1323L30.0303-67.1323L30.0303-70.459L28.1226-70.459ZM11.6885-24.4799L46.9815-24.4799L46.2315-26.7285L12.4385-26.7285ZM55.1196 0L57.7637 0L30.6382-70.459L29.4326-70.459L29.4326-67.1323Z"/>
  </g>
  <line id="Baseline-L" style="fill:none;stroke:#27AAE1;opacity:1;stroke-width:0.5;" x1="263" x2="3036" y1="1556" y2="1556"/>
  <line id="Capline-L" style="fill:none;stroke:#27AAE1;opacity:1;stroke-width:0.5;" x1="263" x2="3036" y1="1485.54" y2="1485.54"/>
  <line id="right-margin-Black-S" style="fill:none;stroke:#00AEEF;stroke-width:0.5;opacity:1.0;" x1="2983.25" x2="2983.25" y1="600.785" y2="720.121"/>
  <line id="left-margin-Black-S" style="fill:none;stroke:#00AEEF;stroke-width:0.5;opacity:1.0;" x1="2883.55" x2="2883.55" y1="600.785" y2="720.121"/>
  <line id="right-margin-Regular-S" style="fill:none;stroke:#00AEEF;stroke-width:0.5;opacity:1.0;" x1="1497.57" x2="1497.57" y1="600.785" y2="720.121"/>
  <line id="left-margin-Regular-S" style="fill:none;stroke:#00AEEF;stroke-width:0.5;opacity:1.0;" x1="1402.11" x2="1402.11" y1="600.785" y2="720.121"/>
  <line id="right-margin-Ultralight-S" style="fill:none;stroke:#00AEEF;stroke-width:0.5;opacity:1.0;" x1="604.58" x2="604.58" y1="600.785" y2="720.121"/>
  <line id="left-margin-Ultralight-S" style="fill:none;stroke:#00AEEF;stroke-width:0.5;opacity:1.0;" x1="514.842" x2="514.842" y1="600.785" y2="720.121"/>
 </g>
 <g id="Symbols">
  <g id="Black-S" transform="matrix(1 0 0 1 2883.55 696)">
   <path class="monochrome-0 multicolor-0:tintColor hierarchical-0:primary SFSymbolsPreviewWireframe" d="M16.85-43.945C21.44-43.945 23.93-46.484 23.93-51.074L23.93-57.812C23.93-60.254 25-61.133 27.25-61.133L33.98-61.133C38.62-61.133 41.11-63.623 41.11-68.213C41.11-72.803 38.62-75.293 33.98-75.293L25-75.293C15.43-75.293 9.77-69.629 9.77-60.059L9.77-51.074C9.77-46.435 12.26-43.945 16.85-43.945ZM82.86-43.945C87.45-43.945 89.94-46.435 89.94-51.074L89.94-60.059C89.94-69.629 84.28-75.293 74.71-75.293L65.72-75.293C61.08-75.293 58.59-72.803 58.59-68.213C58.59-63.623 61.13-61.133 65.72-61.133L72.46-61.133C74.71-61.133 75.78-60.254 75.78-57.812L75.78-51.074C75.78-46.435 78.27-43.945 82.86-43.945ZM25 4.883L33.98 4.883C38.62 4.883 41.11 2.393 41.11-2.197C41.11-6.787 38.57-9.277 33.98-9.277L27.25-9.277C25-9.277 23.93-10.156 23.93-12.598L23.93-19.336C23.93-23.975 21.44-26.465 16.85-26.465C12.26-26.465 9.77-23.975 9.77-19.336L9.77-10.352C9.77-0.781 15.43 4.883 25 4.883ZM65.72 4.883L74.71 4.883C84.28 4.883 89.94-0.781 89.94-10.352L89.94-19.336C89.94-23.975 87.45-26.465 82.86-26.465C78.27-26.465 75.78-23.926 75.78-19.336L75.78-12.598C75.78-10.156 74.71-9.277 72.46-9.277L65.72-9.277C61.08-9.277 58.59-6.787 58.59-2.197C58.59 2.393 61.08 4.883 65.72 4.883ZM53.47-33.365C53.25-32.79 53.14-32.183 53.14-31.569L53.14-15.337C53.14-14.517 53.99-13.971 54.16-13.8L36.49-13.8C35.22-13.8 33.45-15.081 33.45-16.361L33.45-31.567C33.45-32.181 33.56-32.79 33.77-33.365L38.01-43.972L56.89-43.972L53.47-33.365ZM62.44-42.586C62.61-43.042 63.25-43.03 63.4-42.568L66.2-32.974C66.36-32.487 66.44-31.979 66.45-31.467L66.45-16.361C66.45-15.081 65.18-13.8 63.91-13.8L62.4-13.8C61.13-13.8 59.35-15.081 59.35-16.361L59.35-31.329C59.35-31.931 59.46-32.529 59.66-33.095L62.44-42.586ZM57.79-56C59.19-56 60.32-54.853 60.32-53.439L60.32-49.261L38.01-49.261L38.01-53.439C38.01-54.853 39.15-56 40.55-56L57.79-56Z"/>
  </g>
  <g id="Regular-S" transform="matrix(1 0 0 1 1402.11 696)">
   <path class="monochrome-0 multicolor-0:tintColor hierarchical-0:primary SFSymbolsPreviewWireframe" d="M13.28-48.242C15.58-48.242 16.8-49.512 16.8-51.807L16.8-60.547C16.8-64.209 18.8-66.113 22.31-66.113L31.3-66.113C33.59-66.113 34.86-67.383 34.86-69.629C34.86-71.924 33.59-73.193 31.3-73.193L22.22-73.193C13.92-73.193 9.77-69.092 9.77-60.889L9.77-51.807C9.77-49.512 11.03-48.242 13.28-48.242ZM82.18-48.242C84.47-48.242 85.69-49.512 85.69-51.807L85.69-60.889C85.69-69.092 81.59-73.193 73.24-73.193L64.16-73.193C61.86-73.193 60.6-71.924 60.6-69.629C60.6-67.383 61.86-66.113 64.16-66.113L73.14-66.113C76.66-66.113 78.66-64.209 78.66-60.547L78.66-51.807C78.66-49.512 79.93-48.242 82.18-48.242ZM22.22 2.783L31.3 2.783C33.59 2.783 34.86 1.514 34.86-0.732C34.86-3.027 33.59-4.297 31.3-4.297L22.31-4.297C18.8-4.297 16.8-6.201 16.8-9.863L16.8-18.555C16.8-20.898 15.53-22.168 13.28-22.168C10.99-22.168 9.77-20.898 9.77-18.555L9.77-9.521C9.77-1.318 13.92 2.783 22.22 2.783ZM64.16 2.783L73.24 2.783C81.59 2.783 85.69-1.318 85.69-9.521L85.69-18.555C85.69-20.898 84.42-22.168 82.18-22.168C79.88-22.168 78.66-20.898 78.66-18.555L78.66-9.863C78.66-6.201 76.66-4.297 73.14-4.297L64.16-4.297C61.86-4.297 60.6-3.027 60.6-0.732C60.6 1.514 61.86 2.783 64.16 2.783ZM53.9-34.968C53.63-34.263 53.5-33.52 53.5-32.767L53.5-12.882C53.5-11.878 54.54-11.209 54.75-11L31.65-11C30.09-11 27.89-12.569 27.89-14.137L27.89-32.764C27.89-33.516 28.03-34.263 28.29-34.968L33.54-47.961L58.14-47.961L53.9-34.968ZM62.53-46.262C62.74-46.821 63.53-46.807 63.72-46.241L67.18-34.488C67.37-33.892 67.48-33.269 67.49-32.642L67.49-14.137C67.49-12.569 65.92-11 64.35-11L62.47-11C60.9-11 58.71-12.569 58.71-14.137L58.71-32.472C58.71-33.211 58.84-33.943 59.09-34.636L62.53-46.262ZM58.01-60C59.74-60 61.14-58.595 61.14-56.863L61.14-52.97L33.54-52.97L33.54-56.863C33.54-58.595 34.94-60 36.67-60L58.01-60Z"/>
  </g>
  <g id="Ultralight-S" transform="matrix(1 0 0 1 514.842 696)">
   <path class="monochrome-0 multicolor-0:tintColor hierarchical-0:primary SFSymbolsPreviewWireframe" d="M10.874-48.515C11.58-48.515 11.983-48.967 11.983-49.672L11.983-60.184C11.983-65.39 14.666-68.066 19.862-68.066L30.39-68.066C31.096-68.066 31.503-68.473 31.503-69.175C31.503-69.88 31.096-70.287 30.39-70.287L19.765-70.287C13.235-70.287 9.765-66.821 9.765-60.298L9.765-49.672C9.765-48.967 10.172-48.515 10.874-48.515ZM78.863-48.515C79.614-48.515 79.972-48.967 79.972-49.672L79.972-60.298C79.972-66.731 76.551-70.287 69.973-70.287L59.392-70.287C58.641-70.287 58.234-69.88 58.234-69.175C58.234-68.473 58.641-68.066 59.392-68.066L69.875-68.066C74.889-68.066 77.799-65.39 77.799-60.184L77.799-49.672C77.799-48.967 78.161-48.515 78.863-48.515ZM19.765-0.032L30.39-0.032C31.096-0.032 31.503-0.439 31.503-1.141C31.503-1.847 31.096-2.253 30.39-2.253L19.862-2.253C14.666-2.253 11.983-4.93 11.983-10.136L11.983-20.644C11.983-21.353 11.577-21.805 10.874-21.805C10.169-21.805 9.765-21.353 9.765-20.644L9.765-10.021C9.765-3.498 13.235-0.032 19.765-0.032ZM59.392-0.032L69.973-0.032C76.551-0.032 79.972-3.589 79.972-10.021L79.972-20.644C79.972-21.353 79.61-21.805 78.863-21.805C78.157-21.805 77.799-21.353 77.799-20.644L77.799-10.136C77.799-4.93 74.889-2.253 69.875-2.253L59.392-2.253C58.641-2.253 58.234-1.847 58.234-1.141C58.234-0.439 58.641-0.032 59.392-0.032ZM52.665-35.968C52.401-35.263 52.266-34.52 52.266-33.767L52.266-13.882C52.266-12.878 53.312-12.209 53.521-12L28.923-12C27.354-12 25.158-13.569 25.158-15.137L25.158-33.764C25.158-34.516 25.293-35.263 25.558-35.968L30.805-48.961L57.909-48.961L52.665-35.968ZM59.299-47.262C59.504-47.821 60.3-47.807 60.485-47.241L63.948-35.488C64.143-34.892 64.248-34.269 64.258-33.642L64.256-15.137C64.256-13.569 62.687-12 61.119-12L58.24-12C56.672-12 54.476-13.569 54.476-15.137L54.476-33.472C54.476-34.211 54.606-34.943 54.86-35.636L59.299-47.262ZM55.276-59C57.008-59 58.413-57.595 58.413-55.863L58.413-50.97L30.805-50.97L30.805-55.863C30.805-57.595 32.21-59 33.942-59L55.276-59Z"/>
  </g>
 </g>
</svg>
